PathFileType  4	(X/Y/Z) C:\Users\antoi\Documents\MyRepositories\mobilecap\ResultsAnalysis
DataRate	CameraRate	NumFrames	NumMarkers	Units	OrigDataRate	OrigDataStartFrame	OrigNumFrames
100.0	100.0	4	51	mm	100.0	1020	1631
Frame#	Time	r_knee			r_shank_antsup			r_ankle			r_calc			r_5meta			r_toe			L_knee			L_shank_antsup			L_ankle			L_calc			L_5meta			L_toe			r_sh2			r_sh3			r_sh4			L_sh2			L_sh3			r_thigh1			r_thigh2			r_thigh3			r_thigh4			r_thigh5			L_thigh1			L_thigh2			L_thigh3			L_thigh4			r.ASIS			r.PSIS			L.ASIS			L.PSIS			C7			R_Shoulder			L_Shoulder			R_Sternum			L_Sternum			R_humerus			R_elbow_med			R_elbow_lat			R_forearm			R_wrist_radius			R_wrist_ulna			L_humerus			L_elbow_med			L_elbow_lat			L_forearm			L_wrist_radius			L_wrist_ulna			R_HJC			L_HJC			R_HJC_reg			L_HJC_reg			
		X1	Y1	Z1	X2	Y2	Z2	X3	Y3	Z3	X4	Y4	Z4	X5	Y5	Z5	X6	Y6	Z6	X7	Y7	Z7	X8	Y8	Z8	X9	Y9	Z9	X10	Y10	Z10	X11	Y11	Z11	X12	Y12	Z12	X13	Y13	Z13	X14	Y14	Z14	X15	Y15	Z15	X16	Y16	Z16	X17	Y17	Z17	X18	Y18	Z18	X19	Y19	Z19	X20	Y20	Z20	X21	Y21	Z21	X22	Y22	Z22	X23	Y23	Z23	X24	Y24	Z24	X25	Y25	Z25	X26	Y26	Z26	X27	Y27	Z27	X28	Y28	Z28	X29	Y29	Z29	X30	Y30	Z30	X31	Y31	Z31	X32	Y32	Z32	X33	Y33	Z33	X34	Y34	Z34	X35	Y35	Z35	X36	Y36	Z36	X37	Y37	Z37	X38	Y38	Z38	X39	Y39	Z39	X40	Y40	Z40	X41	Y41	Z41	X42	Y42	Z42	X43	Y43	Z43	X44	Y44	Z44	X45	Y45	Z45	X46	Y46	Z46	X47	Y47	Z47	X48	Y48	Z48	X49	Y49	Z49	X50	Y50	Z50	X51	Y51	Z51	

1020	10.19000000	-228.21681	501.10455	-444.58790	-195.84072	432.54428	-430.17010	-316.57019	102.74275	-471.72129	-373.69001	50.49976	-522.82657	-179.64130	43.05219	-423.04260	-141.29135	72.62125	-477.38051	-214.95239	496.03096	-801.57590	-187.81733	395.97678	-801.17426	-313.62661	97.18807	-747.86606	-380.70337	51.91023	-705.96301	-164.44711	35.18993	-786.82035	-135.49220	67.48170	-726.61111	-218.96534	321.83306	-432.59280	-270.35635	446.44984	-422.20492	-300.24544	335.13663	-426.84541	-272.87106	420.48143	-818.15556	-296.94643	303.02238	-803.46473	-520.92958	585.05415	-436.40253	-412.64214	595.92416	-439.08702	-384.08221	539.05194	-409.86846	-510.07472	469.54240	-434.21284	-393.71623	485.47292	-424.57376	-515.49273	583.52079	-818.43351	-374.29761	590.92135	-815.66723	-507.53998	468.35457	-820.79096	-371.31643	482.00841	-829.74893	-571.38657	591.81756	-504.43080	-758.53911	618.35214	-588.84478	-566.50564	602.33017	-764.45167	-756.53190	613.10150	-688.31169	-404.26375	1043.54915	-629.93676	-360.07424	961.42615	-453.87580	-330.99767	971.52939	-787.19026	-327.71635	890.35696	-597.13830	-325.60089	890.08930	-650.10369	-574.92258	827.58852	-337.05272	-683.74208	785.18838	-399.20807	-653.31839	788.73651	-311.26222	-557.01781	664.72889	-346.60143	-489.75552	591.86576	-389.62624	-519.64564	572.42919	-363.39812	-541.80009	848.14090	-898.70738	-652.37553	817.20793	-834.67105	-627.01828	818.85206	-913.93423	-559.31305	659.81873	-930.41451	-499.24527	586.68025	-925.81489	-533.38013	565.40081	-924.62200	-643.58482	506.16555	-516.26710	-636.40403	513.29942	-746.41290	-639.86690	523.17029	-538.63005	-636.40566	514.11621	-710.13946	
1021	10.20000000	-225.59629	499.64604	-443.86034	-193.47885	431.16210	-429.55801	-316.07392	102.21565	-472.21917	-373.26024	50.63560	-523.16402	-179.47782	42.73886	-422.94484	-140.90220	72.05778	-477.31105	-212.22018	494.64583	-802.38708	-185.66242	394.47534	-801.64258	-313.18271	96.54125	-747.51995	-380.54037	51.79813	-705.64610	-164.23196	34.30898	-786.54471	-135.09263	66.79794	-726.58224	-216.92778	320.59961	-432.56988	-267.84724	445.20509	-421.32592	-298.09698	334.00893	-426.16735	-270.63433	419.42068	-818.85571	-295.33903	301.99984	-803.58382	-516.85752	585.62312	-436.12665	-409.34964	595.01515	-438.24378	-381.24768	537.20379	-409.78977	-507.85816	469.37843	-434.82641	-391.38352	483.72914	-425.57781	-511.88318	583.57134	-819.64805	-370.64592	589.84290	-816.71822	-505.08382	468.21245	-820.40689	-368.52875	481.17126	-829.76985	-566.34694	591.03349	-503.90277	-752.61449	622.83002	-588.34690	-561.64368	602.17895	-764.42814	-750.64267	617.71746	-688.14096	-388.04071	1039.35702	-629.14463	-346.35098	955.60809	-453.13553	-315.95759	964.95796	-786.40944	-314.94574	884.35672	-596.59424	-312.79063	883.98849	-649.34368	-565.66140	828.06674	-337.81892	-675.38129	789.45168	-400.53382	-645.44005	791.64633	-312.46911	-552.24427	665.10409	-348.23481	-486.37098	591.74922	-390.11572	-516.79278	572.05122	-365.47829	-530.27626	847.35883	-896.70262	-641.36454	820.47251	-832.21027	-616.54867	821.14914	-911.69480	-556.21836	658.77205	-928.95724	-500.33762	583.15613	-925.54800	-534.66659	563.53044	-924.21129	-640.76578	507.39744	-516.24144	-633.56158	514.94264	-746.37268	-636.94190	524.29669	-538.39733	-633.54592	515.49085	-710.27195	
1022	10.21000000	-222.70011	498.40748	-443.32191	-190.97404	429.71994	-429.35704	-315.47682	101.84305	-472.80952	-372.94593	50.71619	-523.52009	-179.33480	42.43412	-422.91687	-140.46762	71.54548	-477.27817	-209.34766	493.41875	-803.19506	-183.33802	393.08845	-802.16155	-312.82394	96.02790	-747.16172	-380.39312	51.70057	-705.40997	-164.08397	33.73874	-786.30692	-134.81301	66.27487	-726.62077	-214.85440	319.29674	-432.83210	-265.00732	444.14167	-420.65639	-295.76703	333.09908	-425.65333	-268.16499	418.45311	-819.39824	-293.66090	301.23571	-803.76706	-512.67031	586.48006	-435.95137	-405.77409	593.99068	-437.51852	-378.07774	535.77354	-409.65039	-505.31151	469.48135	-435.50163	-388.64895	482.53027	-426.51410	-507.99794	583.82557	-820.31626	-366.56513	588.96500	-817.40028	-502.16485	468.51278	-820.06487	-365.57173	480.27680	-829.51012	-561.12669	590.77735	-503.40053	-746.40260	627.59222	-587.89917	-556.29910	602.50667	-764.25497	-744.50770	622.54594	-687.97059	-372.26837	1035.57033	-628.39724	-333.12210	950.37420	-452.36765	-301.45919	958.85048	-785.70091	-302.45134	878.96690	-596.00102	-300.29217	878.52203	-648.62990	-556.24826	828.68314	-338.55302	-666.81151	793.44176	-402.14059	-637.28337	794.42128	-313.82062	-546.97843	665.75778	-349.50943	-482.67374	591.76894	-390.71919	-513.83349	571.17895	-367.15752	-518.82109	846.31426	-894.57550	-630.13827	822.96142	-829.69638	-605.90350	822.67333	-909.26780	-552.64198	657.46770	-927.19104	-500.47271	579.83116	-925.62749	-534.97458	561.42826	-922.67830	-637.62216	509.11967	-516.16377	-630.21881	517.03317	-746.27413	-633.57471	526.05467	-538.06356	-630.31589	517.37523	-710.18639	
1023	10.22000000	-219.60352	497.35732	-443.16385	-188.26024	428.38263	-429.45502	-314.87469	101.71372	-473.34328	-372.64420	50.77375	-523.83179	-179.25289	42.14470	-422.90927	-140.07987	71.10639	-477.26065	-206.25373	492.21096	-803.80488	-180.90733	391.83868	-802.61228	-312.57138	95.80481	-747.06981	-380.22957	51.67839	-705.31982	-163.97965	33.49035	-786.30457	-134.60809	65.92408	-726.77499	-212.77321	318.12399	-433.30596	-262.17400	443.36819	-420.46876	-293.45108	332.35823	-425.66347	-265.54598	417.76154	-819.65027	-291.90869	300.88876	-803.98910	-508.16625	587.61399	-436.07791	-401.70116	592.96951	-437.02621	-374.58089	534.85186	-409.83950	-502.43704	469.79577	-436.52115	-385.59057	481.93381	-427.43472	-503.77932	584.58949	-820.60704	-362.16883	588.39454	-817.78737	-499.02054	469.63194	-819.47489	-362.46113	479.34370	-828.75058	-555.72731	590.93157	-503.01085	-739.99510	632.51010	-587.42891	-550.80053	603.18318	-763.44475	-738.23302	627.56851	-687.85209	-357.12821	1032.22957	-627.70408	-320.33719	945.78852	-451.48338	-287.54839	953.46690	-785.08486	-290.33702	874.20536	-595.38654	-288.16645	873.71781	-647.91075	-546.77435	829.36228	-339.37584	-657.92424	797.09027	-403.79295	-628.97965	797.17926	-315.20432	-541.41399	666.68185	-350.57040	-478.78790	591.57652	-391.49430	-510.67222	570.60423	-368.25097	-507.49521	845.01618	-892.34251	-618.76316	824.66787	-826.92946	-595.25049	823.60275	-906.70668	-548.48918	656.27404	-925.72648	-499.27036	576.79547	-925.90281	-534.27680	559.18754	-920.43216	-634.30032	511.24422	-515.92017	-626.56139	519.45219	-746.01063	-629.79252	528.30722	-537.70258	-626.77601	519.84717	-709.57759	
